<?xml version="1.0" encoding="UTF-8" standalone="no"?>
<!DOCTYPE svg PUBLIC "-//W3C//DTD SVG 20010904//EN"
              "http://www.w3.org/TR/2001/REC-SVG-20010904/DTD/svg10.dtd">

<svg xmlns="http://www.w3.org/2000/svg"
     width="1.66667in" height="1.66667in"
     viewBox="0 0 500 500">
  <path id="Selection"
        fill="white" stroke="none" stroke-width="1"
        d="M 100.00,200.00
           C 100.00,200.00 138.63,148.00 138.63,148.00
             138.63,148.00 212.13,50.00 212.13,50.00
             212.13,50.00 239.13,14.00 239.13,14.00
             241.02,11.48 246.94,2.20 250.00,2.20
             253.06,2.20 258.98,11.48 260.87,14.00
             260.87,14.00 288.13,50.00 288.13,50.00
             288.13,50.00 365.87,153.00 365.87,153.00
             365.87,153.00 401.00,200.00 401.00,200.00
             401.00,200.00 325.00,200.00 325.00,200.00
             325.00,200.00 325.00,500.00 325.00,500.00
             325.00,500.00 175.00,500.00 175.00,500.00
             175.00,500.00 175.00,200.00 175.00,200.00
             175.00,200.00 100.00,200.00 100.00,200.00 Z" />
</svg>
