<?xml version="1.0" encoding="UTF-8" standalone="no"?>
<!DOCTYPE svg PUBLIC "-//W3C//DTD SVG 20010904//EN"
              "http://www.w3.org/TR/2001/REC-SVG-20010904/DTD/svg10.dtd">

<svg xmlns="http://www.w3.org/2000/svg"
     width="1.66667in" height="1.66667in"
     viewBox="0 0 500 500">
  <path id="Selection #1"
        fill="white" stroke="none" stroke-width="1"
        d="M 459.00,500.00
           C 454.70,493.99 445.55,485.55 440.00,480.00
             440.00,480.00 405.00,445.00 405.00,445.00
             405.00,445.00 298.00,338.00 298.00,338.00
             298.00,338.00 260.01,300.04 260.01,300.04
             256.78,296.87 249.65,287.78 245.00,289.11
             245.00,289.11 228.00,298.73 228.00,298.73
             217.72,303.87 204.22,308.53 193.00,311.11
             136.52,324.13 74.98,304.51 37.44,260.00
             -18.12,194.14 -11.29,95.08 54.00,38.29
             68.08,26.04 84.56,16.47 102.00,9.95
             116.04,4.70 136.01,0.18 151.00,0.00
             192.22,-0.48 229.47,10.86 261.00,38.29
             307.77,78.97 325.74,142.76 308.71,202.00
             304.30,217.34 296.77,234.35 287.00,247.00
             293.01,251.30 301.45,260.45 307.00,266.00
             307.00,266.00 340.00,299.00 340.00,299.00
             340.00,299.00 444.00,403.00 444.00,403.00
             444.00,403.00 484.00,443.00 484.00,443.00
             486.70,445.70 497.96,456.18 498.66,459.00
             499.60,462.74 492.48,468.52 490.00,471.00
             490.00,471.00 472.00,489.00 472.00,489.00
             467.88,493.12 464.32,497.48 459.00,500.00 Z
           M 150.00,51.29
           C 137.33,53.22 124.73,55.98 113.00,61.31
             107.05,64.02 100.21,68.68 95.00,72.65
             82.07,82.52 68.09,98.08 61.31,113.00
             56.45,123.71 51.14,143.29 51.00,155.00
             50.41,205.68 87.40,251.26 137.00,261.40
             142.90,262.60 148.97,263.93 155.00,264.00
             170.13,264.17 184.97,260.41 199.00,254.94
             209.59,250.81 222.90,240.92 231.00,232.99
             247.93,216.39 257.20,199.11 261.80,176.00
             262.85,170.72 263.93,165.40 264.00,160.00
             264.47,119.66 240.12,80.33 204.00,62.27
             196.38,58.46 185.39,55.09 177.00,53.40
             166.88,51.36 160.45,50.31 150.00,51.29 Z" />
</svg>
