<?xml version="1.0" encoding="UTF-8" standalone="no"?>
<!DOCTYPE svg PUBLIC "-//W3C//DTD SVG 20010904//EN"
              "http://www.w3.org/TR/2001/REC-SVG-20010904/DTD/svg10.dtd">

<svg xmlns="http://www.w3.org/2000/svg"
     width="1.66667in" height="1.66667in"
     viewBox="0 0 500 500">
  <path id="Selection"
        fill="white" stroke="none" stroke-width="1"
        d="M 175.00,255.00
           C 164.85,247.73 147.64,227.65 138.00,218.00
             138.00,218.00 53.96,131.00 53.96,131.00
             53.96,131.00 33.04,110.00 33.04,110.00
             33.04,110.00 19.00,95.00 19.00,95.00
             16.17,92.17 2.87,79.35 1.74,77.00
             -0.59,72.12 11.60,62.40 15.00,59.00
             15.00,59.00 60.00,14.00 60.00,14.00
             62.91,11.09 71.95,0.32 76.00,1.34
             78.54,1.97 84.87,8.87 87.00,11.00
             87.00,11.00 113.00,37.00 113.00,37.00
             113.00,37.00 208.00,132.00 208.00,132.00
             208.00,132.00 238.00,162.00 238.00,162.00
             240.27,164.27 247.00,171.96 250.00,171.96
             253.00,171.96 259.73,164.27 262.00,162.00
             262.00,162.00 292.00,132.00 292.00,132.00
             292.00,132.00 387.00,37.00 387.00,37.00
             387.00,37.00 413.00,11.00 413.00,11.00
             415.13,8.87 421.46,1.97 424.00,1.34
             426.48,0.72 428.31,2.55 430.00,4.06
             430.00,4.06 443.00,17.00 443.00,17.00
             443.00,17.00 483.00,57.00 483.00,57.00
             485.81,59.81 497.95,71.15 498.66,74.00
             499.60,77.74 492.48,83.52 490.00,86.00
             490.00,86.00 461.00,115.00 461.00,115.00
             461.00,115.00 361.00,215.00 361.00,215.00
             361.00,215.00 336.00,240.00 336.00,240.00
             333.97,242.03 328.04,247.15 328.04,250.00
             328.04,253.00 335.73,259.73 338.00,262.00
             338.00,262.00 370.00,294.00 370.00,294.00
             370.00,294.00 467.00,391.00 467.00,391.00
             467.00,391.00 491.00,415.00 491.00,415.00
             493.09,417.09 498.80,422.04 498.80,425.00
             498.80,428.16 491.33,434.67 489.00,437.00
             489.00,437.00 457.00,469.00 457.00,469.00
             457.00,469.00 437.00,489.00 437.00,489.00
             432.88,493.12 429.32,497.48 424.00,500.00
             424.00,500.00 404.00,479.00 404.00,479.00
             404.00,479.00 368.00,443.00 368.00,443.00
             368.00,443.00 250.00,325.00 250.00,325.00
             250.00,325.00 209.00,367.00 209.00,367.00
             209.00,367.00 129.00,447.00 129.00,447.00
             129.00,447.00 93.00,483.00 93.00,483.00
             87.83,488.17 80.33,497.01 74.00,500.00
             69.70,493.99 60.55,485.55 55.00,480.00
             55.00,480.00 20.00,445.00 20.00,445.00
             20.00,445.00 7.00,432.00 7.00,432.00
             5.37,430.33 2.20,427.49 2.20,425.00
             2.20,421.84 9.67,415.33 12.00,413.00
             12.00,413.00 44.00,382.00 44.00,382.00
             44.00,382.00 91.00,336.96 91.00,336.96
             91.00,336.96 111.00,317.04 111.00,317.04
             111.00,317.04 175.00,255.00 175.00,255.00 Z" />
</svg>
